<?xml version="1.0" standalone="no"?>
<!DOCTYPE svg PUBLIC "-//W3C//DTD SVG 20010904//EN"
 "http://www.w3.org/TR/2001/REC-SVG-20010904/DTD/svg10.dtd">
<svg version="1.0" xmlns="http://www.w3.org/2000/svg"
 width="190.000000pt" height="190.000000pt" viewBox="0 0 190.000000 190.000000"
 preserveAspectRatio="xMidYMid meet">
<metadata>
Created by potrace 1.11, written by Peter Selinger 2001-2013
</metadata>
<g transform="translate(0.000000,190.000000) scale(0.100000,-0.100000)"
fill="#000000" stroke="none">
<path d="M855 1879 c-16 -5 -79 -38 -140 -73 -84 -49 -109 -69 -107 -83 2 -10
4 -32 5 -49 4 -44 34 -88 55 -78 38 16 150 16 200 0 187 -62 252 -311 120
-460 -121 -139 -345 -127 -450 23 -81 116 -71 258 25 359 l32 33 -21 37 c-12
20 -30 39 -40 40 -11 2 -26 13 -35 24 -16 20 -18 19 -150 -56 -151 -86 -217
-146 -243 -222 -24 -70 -24 -777 0 -847 32 -94 76 -128 413 -321 343 -197 381
-212 480 -195 46 8 116 45 366 189 171 98 326 192 345 208 20 16 49 56 65 88
l30 59 3 370 c5 549 31 501 -420 761 -174 101 -334 188 -355 193 -45 13 -136
13 -178 0z m474 -725 c18 -23 21 -41 21 -117 l0 -90 -23 21 c-26 24 -61 28
-94 9 -12 -7 -84 -72 -161 -144 -77 -73 -143 -133 -146 -133 -3 0 -6 40 -6 89
l0 89 138 133 c75 72 151 140 167 150 43 27 79 24 104 -7z m-497 -211 c15 -13
18 -32 18 -117 0 -94 -1 -99 -16 -78 -36 52 -97 21 -249 -128 -109 -107 -128
-120 -174 -120 -25 0 -36 7 -51 33 -16 26 -20 50 -20 132 l0 100 18 -35 c18
-37 43 -47 90 -35 15 4 74 53 132 110 154 151 206 180 252 138z m685 -27 l28
-24 0 -212 c0 -210 0 -212 -24 -231 -34 -27 -75 -24 -100 7 -20 25 -21 39 -21
231 0 203 0 204 25 228 30 31 56 32 92 1z m-187 -46 c17 -17 20 -33 20 -115
l0 -95 -20 20 c-44 44 -92 20 -235 -121 -63 -62 -126 -115 -148 -124 -36 -15
-41 -15 -63 0 -36 23 -44 54 -44 163 l0 97 18 -35 c18 -37 43 -47 90 -35 15 4
76 55 137 115 153 150 200 175 245 130z m-560 -230 c35 -35 26 -63 -37 -119
-61 -54 -98 -65 -127 -35 -17 16 -21 51 -8 70 19 29 115 104 132 104 11 0 29
-9 40 -20z m30 -285 c0 -12 -13 -15 -55 -15 l-55 0 0 -65 0 -65 55 0 c30 0 55
-4 55 -10 0 -6 -30 -10 -70 -10 l-70 0 0 90 0 90 70 0 c56 0 70 -3 70 -15z
m94 -17 l26 -33 28 34 c17 19 35 32 45 30 14 -3 11 -12 -18 -48 l-35 -43 36
-44 c31 -38 34 -44 17 -44 -12 0 -45 32 -91 90 -57 71 -68 90 -53 90 11 0 31
-15 45 -32z m186 -58 c0 -73 -3 -90 -15 -90 -12 0 -15 17 -15 90 0 73 3 90 15
90 12 0 15 -17 15 -90z m190 70 c12 -22 4 -60 -14 -72 -6 -4 -22 -8 -36 -8
-23 0 -23 -1 15 -40 24 -25 33 -40 24 -40 -17 0 -99 80 -99 97 0 7 19 13 42
15 31 2 44 8 46 21 3 14 -5 17 -52 17 l-56 0 0 -75 c0 -43 -4 -75 -10 -75 -6
0 -10 37 -10 90 l0 90 70 0 c59 0 71 -3 80 -20z m-470 -65 c0 -11 -12 -15 -50
-15 -38 0 -50 4 -50 15 0 11 12 15 50 15 38 0 50 -4 50 -15z m93 -62 c-11 -16
-30 -30 -43 -31 -21 -4 -20 -1 11 37 22 28 36 38 43 31 7 -7 3 -19 -11 -37z"/>
<path d="M720 1541 c-171 -55 -225 -240 -108 -367 74 -80 187 -94 280 -35 140
89 131 309 -16 380 -48 24 -120 34 -156 22z"/>
</g>
</svg>
